<mxfile host="app.diagrams.net" modified="2023-06-19T14:12:21.324Z" agent="Mozilla/5.0 (Windows NT 10.0; Win64; x64) AppleWebKit/537.36 (KHTML, like Gecko) Chrome/114.0.0.0 Safari/537.36" etag="CzqYGdDb5K7USuuK6Tds" version="21.5.0" type="github">
  <diagram name="Страница 1" id="ik8NVOvBLz_RfKidXCUl">
    <mxGraphModel dx="1050" dy="541" grid="1" gridSize="10" guides="1" tooltips="1" connect="1" arrows="1" fold="1" page="1" pageScale="1" pageWidth="827" pageHeight="1169" math="0" shadow="0">
      <root>
        <mxCell id="0" />
        <mxCell id="1" parent="0" />
        <mxCell id="WEhVx8uHDs639_2PtalQ-8" style="edgeStyle=orthogonalEdgeStyle;rounded=0;orthogonalLoop=1;jettySize=auto;html=1;exitX=0;exitY=1;exitDx=0;exitDy=0;entryX=1;entryY=0.5;entryDx=0;entryDy=0;" edge="1" parent="1" source="WEhVx8uHDs639_2PtalQ-1" target="WEhVx8uHDs639_2PtalQ-7">
          <mxGeometry relative="1" as="geometry" />
        </mxCell>
        <mxCell id="WEhVx8uHDs639_2PtalQ-9" style="edgeStyle=orthogonalEdgeStyle;rounded=0;orthogonalLoop=1;jettySize=auto;html=1;exitX=0.25;exitY=1;exitDx=0;exitDy=0;entryX=0.59;entryY=-0.036;entryDx=0;entryDy=0;entryPerimeter=0;" edge="1" parent="1" source="WEhVx8uHDs639_2PtalQ-1" target="WEhVx8uHDs639_2PtalQ-2">
          <mxGeometry relative="1" as="geometry" />
        </mxCell>
        <mxCell id="WEhVx8uHDs639_2PtalQ-10" style="edgeStyle=orthogonalEdgeStyle;rounded=0;orthogonalLoop=1;jettySize=auto;html=1;exitX=0.5;exitY=1;exitDx=0;exitDy=0;entryX=0.633;entryY=0.004;entryDx=0;entryDy=0;entryPerimeter=0;" edge="1" parent="1" source="WEhVx8uHDs639_2PtalQ-1" target="WEhVx8uHDs639_2PtalQ-6">
          <mxGeometry relative="1" as="geometry" />
        </mxCell>
        <mxCell id="WEhVx8uHDs639_2PtalQ-11" style="edgeStyle=orthogonalEdgeStyle;rounded=0;orthogonalLoop=1;jettySize=auto;html=1;exitX=0.75;exitY=1;exitDx=0;exitDy=0;entryX=0.5;entryY=0;entryDx=0;entryDy=0;" edge="1" parent="1" source="WEhVx8uHDs639_2PtalQ-1" target="WEhVx8uHDs639_2PtalQ-5">
          <mxGeometry relative="1" as="geometry" />
        </mxCell>
        <mxCell id="WEhVx8uHDs639_2PtalQ-12" style="edgeStyle=orthogonalEdgeStyle;rounded=0;orthogonalLoop=1;jettySize=auto;html=1;exitX=1;exitY=1;exitDx=0;exitDy=0;entryX=0;entryY=0.5;entryDx=0;entryDy=0;" edge="1" parent="1" source="WEhVx8uHDs639_2PtalQ-1" target="WEhVx8uHDs639_2PtalQ-4">
          <mxGeometry relative="1" as="geometry" />
        </mxCell>
        <mxCell id="WEhVx8uHDs639_2PtalQ-13" style="edgeStyle=orthogonalEdgeStyle;rounded=0;orthogonalLoop=1;jettySize=auto;html=1;exitX=1;exitY=0.25;exitDx=0;exitDy=0;entryX=0.5;entryY=0;entryDx=0;entryDy=0;" edge="1" parent="1" source="WEhVx8uHDs639_2PtalQ-1" target="WEhVx8uHDs639_2PtalQ-3">
          <mxGeometry relative="1" as="geometry" />
        </mxCell>
        <mxCell id="WEhVx8uHDs639_2PtalQ-1" value="App" style="swimlane;whiteSpace=wrap;html=1;startSize=23;" vertex="1" parent="1">
          <mxGeometry x="380" y="140" width="120" height="50" as="geometry" />
        </mxCell>
        <mxCell id="WEhVx8uHDs639_2PtalQ-2" value="Statistic" style="swimlane;whiteSpace=wrap;html=1;startSize=23;" vertex="1" parent="1">
          <mxGeometry x="294" y="360" width="120" height="50" as="geometry" />
        </mxCell>
        <mxCell id="WEhVx8uHDs639_2PtalQ-3" value="appContainer" style="swimlane;whiteSpace=wrap;html=1;startSize=23;" vertex="1" parent="1">
          <mxGeometry x="510" y="300" width="120" height="50" as="geometry" />
        </mxCell>
        <mxCell id="WEhVx8uHDs639_2PtalQ-4" value="analitycs" style="swimlane;whiteSpace=wrap;html=1;startSize=23;" vertex="1" parent="1">
          <mxGeometry x="640" y="250" width="120" height="50" as="geometry" />
        </mxCell>
        <mxCell id="WEhVx8uHDs639_2PtalQ-5" value="database" style="swimlane;whiteSpace=wrap;html=1;startSize=23;" vertex="1" parent="1">
          <mxGeometry x="160" y="360" width="120" height="50" as="geometry" />
        </mxCell>
        <mxCell id="WEhVx8uHDs639_2PtalQ-6" value="Resources" style="swimlane;whiteSpace=wrap;html=1;startSize=23;" vertex="1" parent="1">
          <mxGeometry x="420" y="450" width="120" height="50" as="geometry" />
        </mxCell>
        <mxCell id="WEhVx8uHDs639_2PtalQ-7" value="schedules" style="swimlane;whiteSpace=wrap;html=1;startSize=23;" vertex="1" parent="1">
          <mxGeometry x="90" y="180" width="120" height="50" as="geometry" />
        </mxCell>
      </root>
    </mxGraphModel>
  </diagram>
</mxfile>
